<?xml version="1.0" encoding="UTF-8"?>
<!DOCTYPE svg PUBLIC "-//W3C//DTD SVG 1.1//EN" "http://www.w3.org/Graphics/SVG/1.1/DTD/svg11.dtd">
<!-- Creator: CorelDRAW X7 -->
<svg xmlns="http://www.w3.org/2000/svg" xml:space="preserve" width="100%" height="100%" version="1.1" style="shape-rendering:geometricPrecision; text-rendering:geometricPrecision; image-rendering:optimizeQuality; fill-rule:evenodd; clip-rule:evenodd"
viewBox="0 0 17701 29633"
 xmlns:xlink="http://www.w3.org/1999/xlink">
 <defs>
  <style type="text/css">
   <![CDATA[
    .fil21 {fill:#2B2C35}
    .fil3 {fill:#3B3B3C}
    .fil4 {fill:#464C65}
    .fil8 {fill:#486688}
    .fil0 {fill:#49454D}
    .fil16 {fill:#587AA4}
    .fil11 {fill:#5A6477}
    .fil15 {fill:#726D79}
    .fil12 {fill:#7892AB}
    .fil20 {fill:#789BC5}
    .fil13 {fill:#7C7D8B}
    .fil17 {fill:#8AA2BA}
    .fil18 {fill:#8AB2D5}
    .fil9 {fill:#918E98}
    .fil6 {fill:#A29DA9}
    .fil7 {fill:#A8C4DA}
    .fil2 {fill:#B3B5C3}
    .fil19 {fill:#B7D5E9}
    .fil1 {fill:#D2D2D5}
    .fil10 {fill:#D6E9F9}
    .fil14 {fill:#ECECF3}
    .fil5 {fill:#FDFDFD}
   ]]>
  </style>
 </defs>
 <g id="Слой_x0020_1">
  <metadata id="CorelCorpID_0Corel-Layer"/>
  <g id="_151125977520">
   <path class="fil0" d="M10007 7960l333 296 -246 157c-93,303 -275,599 -404,897l-311 723 -122 -675c-1,-42 -26,-51 -69,-81l-135 555c-223,-455 -611,-1129 -666,-1634l203 -34 568 1164c-47,-392 -110,-576 -116,-994 -2,-92 -1,-442 19,-515 69,-262 78,-160 195,-268 361,557 137,983 101,1609 234,-248 235,-369 359,-707 151,-133 49,45 45,-309l-226 -794 604 378 -132 232zm-1081 -3613l-31 90 47 461c-358,141 -144,0 -200,196 80,86 211,-135 60,234l97 311c-330,-32 -510,67 -780,-308l-491 -408c-42,185 177,73 -90,149 441,288 1436,981 1458,1477 -216,-96 -452,-324 -624,-419 -474,-261 322,45 -224,-14 -235,-25 -106,12 -312,-135l-541 -208c-366,-135 -395,-165 -702,-353 -415,-254 -155,-150 -565,-76 -282,305 -236,285 -718,299l93 37c346,149 528,493 698,834l355 -2 72 35c142,142 142,193 143,194l477 88 188 -287 -425 -98 470 -456 147 399c295,89 105,-54 384,195 -28,365 -8,303 -146,416l50 307c242,-258 -20,65 177,-312 412,-786 -159,157 128,-261 248,162 154,3 102,314l459 190 -77 380 380 -126c-172,383 -116,389 -395,674l-91 -414c-52,183 -25,40 -200,139 -299,22 -413,177 -666,321l76 340c328,250 232,265 517,96 -30,529 13,613 -349,1024 -211,223 -134,246 -308,448 -95,110 -39,61 -152,139l-90 10c2,500 -50,357 149,741l222 -4 31 -419 168 89 437 273 211 -831c496,1118 282,411 430,1734 225,231 278,176 613,357l469 25 -508 -198c193,-474 36,-238 -42,-693 19,-385 30,-274 323,-488l252 40c4,7 12,48 17,56 100,160 -151,77 170,101l64 -21 52 -82c8,-55 22,-370 23,-379 49,-322 -91,-153 172,-220l149 487 -9 -50 306 -121c-1,-4 70,-199 86,-224 126,-207 -16,-39 184,-240l197 -76c-316,-143 -183,-23 -483,-399 -10,-13 -39,-29 -46,-65 -8,-36 -33,-43 -50,-65l-463 -774 -59 -496 570 199 61 -269 -90 -211 -148 -33c-342,-142 -300,-181 -513,-489l-243 -407c161,-123 284,-241 525,-169l-21 -564c252,293 60,89 238,472 169,-361 215,-435 405,-312l126 116 112 -151 285 233 457 -237 607 220 304 -479 -217 -530c191,-84 -255,8 139,-6 690,-25 -318,183 235,-25l-214 -404 -432 22c-321,91 -642,155 -954,266 -406,144 -488,253 -873,94 -93,58 -134,75 -232,112 -483,178 -142,56 -515,530 -440,-93 -99,-158 -378,-2 165,-262 881,-1051 1152,-1231 598,-398 1153,-485 1881,-399l0 -118 -249 55 -641 -144 -456 117c-411,221 -652,407 -1065,679l-131 -95 -272 281c-525,-406 34,-110 -287,-438 -108,-111 -223,-101 -454,-324l88 -156c11,-18 33,-53 43,-71 89,-153 39,17 103,-193l-412 83z"/>
   <path class="fil1" d="M15459 19162c-197,353 -501,286 -838,183l-216 -512c52,17 97,13 115,70l379 282c214,83 356,17 560,-23zm-193 -3137l466 553 351 -172c168,-148 138,-157 390,-370 -96,197 -167,307 -251,485 -191,400 41,131 -264,459 -406,-143 -644,-521 -692,-955zm1096 -1253c-268,-84 -178,31 -249,-315l249 315zm-1096 1253l-323 655 -355 794 -296 -1c-51,489 -14,497 29,968 -363,-156 -279,-184 -657,38 194,201 24,-226 -186,391l0 737 207 458 408 15 53 -446c-3,374 7,356 -52,599l528 -346 145 323 341 9 148 -178c452,-237 802,-662 833,-1223l-630 344 56 -184c-11,-24 -33,-84 -37,-68 -7,22 -41,-70 -66,-143 -273,-798 123,-619 -487,-606l475 148c7,-40 18,-137 25,-120l85 -311c72,-301 176,-79 7,-298 4,313 294,624 484,942 475,-91 456,-65 645,-485 112,-248 243,-510 319,-776 118,-412 220,-1127 90,-1531 -159,-488 -23,-181 -262,-382l-256 493c-25,-598 12,-570 -175,-1069 531,100 524,-43 465,419 216,-237 49,145 207,-348 99,-307 43,-1020 -9,-1331 -53,-309 -111,-488 -215,-776 -197,-546 -115,-460 -389,-726 -117,174 63,318 -510,344 -269,13 2,-125 -245,-22 -145,1532 655,1617 -531,3137l131 556z"/>
   <path class="fil1" d="M14150 10275c139,639 -31,1059 -399,1642l-88 196c191,295 201,188 72,615l-446 -383 95 -450 -181 -33 -434 272c39,638 76,780 533,1184l238 -592 194 651c363,-266 193,-336 685,-282 -37,229 -66,230 -165,333 -309,322 -72,-238 -299,558 -14,51 -141,367 -164,363l133 -479c-257,-257 -21,-131 -405,-157l-183 -121c-158,-67 50,75 -195,-119 -6,-5 -181,-188 -207,-214l-499 533 12 865c315,129 185,-242 285,214 97,147 65,-22 458,-127l-35 451c351,-380 39,-254 439,-288 127,-432 -52,-153 348,-422l-13 430 535 779c792,-646 1009,-966 1122,-2059 -432,290 -862,73 -1188,-281l554 105c278,52 156,62 439,-24 104,-597 8,-1005 -98,-1568l1149 -14c-161,-621 -738,-2147 -1570,-2106l-386 45c40,245 -3,149 -97,239 -240,227 0,-305 -239,244z"/>
   <path class="fil0" d="M15600 23163l528 334c-378,211 -789,186 -1270,119l742 -453zm-1673 424l-386 -30 -344 -21c-152,-264 18,-126 -175,-119l-693 44 -84 -314 -92 -148c65,261 130,512 148,813 50,832 -99,583 -359,735l12 -971 -167 2095 131 -272c158,-474 208,-320 317,-932l687 17 463 27c23,460 99,202 -234,519 638,-143 270,190 1049,321l-499 -530c714,-346 1798,-205 2564,109 868,-790 867,-1044 1096,-2151 -278,153 -796,844 -1410,131 -401,-465 -42,-1321 -550,-1420 61,518 290,1107 -125,1547 -491,521 -651,545 -1349,550z"/>
   <path class="fil2" d="M2567 12705c428,-341 -271,19 250,-102 433,-101 393,118 444,-199l120 1050 531 418c-435,12 -921,185 -836,-1051l-494 -77c-493,476 -456,1151 -462,1814l573 673c17,14 161,176 222,243l396 -308 150 216 404 -476c-406,-36 -192,-592 -514,305 -7,-36 -25,-127 -31,-106l-299 -980c592,-15 716,-24 1231,-239 104,1071 179,723 1131,672 303,-337 132,7 -26,-265 -456,172 -350,139 -835,82 -254,-1193 -28,-340 -707,-872 -329,-349 391,-958 591,-1197l-359 -11 23 -239 47 -96 -63 -218c-57,-223 41,-72 -245,-256 301,-216 435,-975 472,-1271l-359 -68c-662,225 -1707,1815 -1355,2558z"/>
   <path class="fil3" d="M6046 24131l1018 98 88 -692 -111 -60c-3107,46 -1794,-482 -3098,-924 -527,-179 -432,-194 -644,-685 -63,297 141,125 -137,606l-803 -319c467,377 605,314 1208,454 474,109 656,405 959,698 -786,489 -1483,979 -2456,1220 -1006,249 -608,-14 -1197,698 -377,456 -631,397 -864,1019l1337 -1107c173,430 35,779 -166,1199 381,-238 369,-915 502,-1303 723,-249 1376,-113 2174,-489 423,-200 452,-354 944,-411 475,-55 779,56 1246,-2z"/>
   <path class="fil0" d="M7552 25708c-402,83 -224,-26 -498,216l-126 -130 -191 -22 81 635 -873 176c212,696 -76,178 595,487l-597 254c-141,69 -274,170 -420,250 -674,137 -160,187 -830,216l-164 -22c499,285 1043,635 1610,650 1004,-103 1757,-280 2685,-455l-1669 140c-597,125 -445,-1 -448,-502 215,-131 -227,-366 677,32l-92 -177c-4,-33 3,-100 0,-150l354 43c138,9 77,44 250,-18 321,-115 302,-175 480,-468 74,-333 -36,-66 224,-357 -533,-99 -176,-39 -351,-199 -48,-648 -298,-380 220,-878l-285 -68 -373 118 -57 647 -216 -680 14 262z"/>
   <path class="fil4" d="M6468 7593c1,-26 226,-181 155,61 -73,246 -162,202 -155,-61zm-1290 -1452c-132,174 124,234 -304,-12l304 12zm-1485 112l204 452c132,-610 -111,-347 -83,-1091 989,441 594,1203 448,962l319 210c683,99 -152,178 1247,1006 426,-195 -98,49 214,-127l257 -137c-133,366 8,157 -210,358l385 39 475 -64c243,113 59,64 336,-36 390,-142 219,-23 506,-273 159,-358 136,-284 432,-506 52,-311 146,-152 -102,-314 -287,418 284,-525 -128,261 -197,377 65,54 -177,312l-92 113c-188,-205 -243,134 -181,-391l-459 262c-741,243 -801,145 -1416,-265l-788 -434 355 -132 -57 -317 -48 -401 180 -97c482,-14 436,6 718,-299 -759,59 -419,62 -1007,-209 -1053,-339 -973,110 -954,524l-409 -312 35 906z"/>
   <path class="fil2" d="M8208 22707l37 -5c-219,338 105,422 -498,199 -30,105 71,193 -212,421 -384,309 100,-316 -383,215l-88 692 147 963c118,-635 -55,-847 152,-1242l106 1224c-201,32 -239,-94 -343,350 273,278 30,141 426,184l-14 -262 216 680 57 -647 373 -118 -119 -630c349,545 -45,417 477,42 -95,-154 -47,-1243 -44,-1603 208,200 500,275 926,316 -388,-341 -133,-90 -201,-349 -380,-62 -335,-281 -578,-616l-194 363 -243 -177z"/>
   <path class="fil4" d="M10269 11050c163,493 205,568 -163,983 321,157 346,42 317,519 -12,184 -96,407 -158,499l-111 539 -517 613c174,-547 17,-306 -110,-518 -212,-355 -86,-357 -274,-743 -179,567 53,123 -278,390l8 54 7 174 -168 605 -265 -138c-353,505 -132,-12 -185,653 479,302 660,27 776,639 558,-81 490,-423 770,-860 67,-105 215,-288 299,-384 370,-421 -8,-255 493,-315l159 -603 102 116c157,-165 32,-11 201,-235 16,-21 76,-139 85,-156 -411,-252 -378,-235 -641,-728l445 -47 311 -64c-1295,-101 -585,-377 -1039,-1014l-64 21z"/>
   <path class="fil5" d="M14231 21359l-44 158c-2,401 -134,910 -428,1127l-134 855 302 88c698,-5 858,-29 1349,-550 415,-440 186,-1029 125,-1547 -348,-121 -385,-225 -424,-664 -291,299 -336,322 -746,533z"/>
   <path class="fil3" d="M13162 3633c74,-504 -52,-172 216,-374 544,75 222,-22 405,232l231 0 -25 -320 339 -165c311,-239 103,-254 527,-353 -60,-446 50,-250 -239,-516 514,-539 543,-1277 982,-1866l-193 -78c-248,391 -1812,885 -1769,1486 69,955 126,303 -264,1016 -260,476 -426,807 -210,938z"/>
   <path class="fil1" d="M10863 18914c-85,176 -10,686 -377,677 -266,-7 -167,-537 -187,-834l570 -339 -122 -352 -442 246 -96 402c-334,-249 27,-123 -408,-105l-44 288 379 72c-147,551 -121,885 -554,1193 35,38 125,97 150,112l221 103c-94,504 -318,1047 -799,485 -299,185 -85,3 -180,297 23,389 58,256 436,458l21 0c236,-305 246,-207 458,-432 221,-236 149,-316 319,-653l360 443 327 -286 162 -548 -494 498 -240 -512 373 82 306 -705 13 526c24,-29 110,-112 133,-129 23,-15 65,-43 88,-59 25,-17 66,-37 99,-56l101 -188c-472,-731 37,-939 97,-1299 413,-19 180,-137 348,258 129,-509 163,-416 -112,-810l-760 127c52,573 309,708 -146,1040z"/>
   <path class="fil4" d="M6276 10855c-357,8 -531,102 -638,-257 272,-270 301,-160 695,-21l-57 278zm-1565 -1073l-218 81 32 383 255 -363c444,790 49,772 -259,1356 -258,368 -228,286 -404,721l-47 96c338,101 97,93 457,54 13,-1 271,-59 275,-61 219,-79 114,-47 205,-121l-240 -136c128,-215 59,-140 144,-310l139 -240c13,-20 40,-52 61,-78l301 -412c279,156 496,150 640,444l187 -35 37 -306 184 -71c211,-333 234,-298 584,-415l139 682 293 -43c-199,-384 -147,-241 -149,-741l90 -10c113,-78 57,-29 152,-139 174,-202 97,-225 308,-448l-85 6 -454 51c59,276 53,88 -146,166l-805 133c-310,-144 -368,-114 -447,-376 -327,22 -310,63 -631,61 -422,-1 -309,-60 -598,71z"/>
   <path class="fil6" d="M11936 8787l-209 454c125,409 -50,826 766,635 528,-163 449,-190 1067,-289 -441,-657 -475,-140 -538,-72 -535,7 -676,-232 -905,-672 820,89 252,-127 1083,183 217,80 631,219 901,280 -412,287 -148,68 -307,301 316,73 271,167 211,471l-150 -324c-201,682 -187,544 -766,711 4,240 -84,4 -87,-19 -2,-15 -26,-15 -39,-14l-206 511 369 -11c-83,565 -10,280 30,416 64,-622 -75,-95 347,-569 218,310 252,579 292,708l355 -1212c239,-549 -1,-17 239,-244 94,-90 137,6 97,-239l386 -45 -549 -352c267,-398 253,-174 329,-613 -583,38 -319,174 -819,117 -344,-39 -708,-37 -566,-401l-247 -86 -421 45 -52 225c-392,36 -339,-26 -611,105z"/>
   <path class="fil2" d="M3775 27824c277,-248 369,-157 122,-768l540 34c-120,132 -207,329 -219,533 -19,331 56,376 281,601l-352 46c327,289 484,267 986,283 391,13 695,-10 1006,-135 -567,-15 -1111,-365 -1610,-650l164 22c223,-424 427,-380 830,-216 146,-80 279,-181 420,-250l597 -254c-671,-309 -383,209 -595,-487l873 -176 -81 -635c-358,296 -1645,582 -1107,1290 -658,43 -1095,-263 -1801,-103 -145,540 -147,306 -54,865z"/>
   <path class="fil7" d="M10816 15145c195,780 -100,472 -95,1091 4,568 -13,-21 142,496 66,220 82,461 140,698l141 -13c476,278 188,266 695,105 185,267 98,-1 -70,225 275,394 241,301 112,810 -165,466 -68,345 -511,423 557,6 351,-125 694,259l190 3c182,-329 78,298 8,-138 -14,-91 -57,-203 -92,-385 998,545 -377,-208 17,-1378 -325,59 -130,-127 -372,149 -98,-183 -93,-602 -205,-928 -152,-443 -355,-585 -467,-960 461,-312 131,-46 452,-93 186,-27 286,-61 480,-149l-17 -815 -121 51 -83 683 -138 -200c-280,-43 -120,146 -302,-167 -401,-232 -60,69 -341,-331l-32 581 -225 -17z"/>
   <path class="fil8" d="M9091 25317c273,-188 142,-142 374,-55 161,427 192,606 -95,861 -410,-329 -126,-324 -279,-806zm1742 -964l-216 27 142 221 -202 78c485,879 86,-283 515,461 -256,188 16,337 -431,47 -73,357 -293,529 -621,578l89 -922c-294,57 -505,64 -795,130 -13,3 -328,95 -331,96 -271,141 -59,-57 -226,234 461,190 -48,406 251,769 272,332 656,370 954,506l256 -195 -77 -226 179 -253 710 -381c171,-371 -10,-197 402,-389 186,287 184,607 217,898l138 -361c-164,-673 -53,-1657 -549,-2192l15 1428c-198,-164 23,61 -142,-158l-278 -396z"/>
   <path class="fil2" d="M2279 16734c186,-44 13,-191 234,156l654 -181 189 681 233 -52c147,419 13,275 426,377l66 -124c139,-192 67,-37 -49,-330 -60,-152 -123,-329 -181,-466 -257,-604 -364,-400 -213,-1101l-509 -205c-361,398 -239,275 -425,295 -293,-275 -460,-651 -551,-1060 -301,345 -248,1697 126,2010z"/>
   <path class="fil9" d="M5410 19629c27,376 -128,723 -305,967l-248 -217c359,-420 550,-468 553,-750zm-1007 -191l-236 -190 -328 92 -180 2 18 258 254 250 175 -317c373,242 540,474 706,820l-424 113 180 356 645 173c13,4 47,9 58,13 229,81 -38,136 385,108 -28,-25 -131,-109 -144,-135l-99 -312c43,7 102,-14 125,33 21,44 87,26 115,29 555,69 -107,56 180,27 261,-27 486,-521 314,-1193l123 144 227 0 -30 -107 -57 -464c-302,275 -216,-256 -252,338 47,-188 52,-57 -119,-194l-40 305c-3,-13 -49,40 -73,61 -309,-613 -230,-182 -564,-376 -270,207 -348,192 -407,480l-209 -935 -78 712 -265 -91z"/>
   <path class="fil10" d="M10311 15816l-79 484 -471 186c19,849 -339,553 -414,1266 694,779 475,65 1303,190 136,-506 11,-304 353,-512 -58,-237 -74,-478 -140,-698 -155,-517 -138,72 -142,-496 -5,-619 290,-311 95,-1091l-10 6c-1,2 -128,161 -137,170 -123,128 -113,88 -177,158 -156,172 -82,11 -181,337z"/>
   <path class="fil1" d="M3865 14906l220 8 270 960c249,45 133,-50 337,91 311,-191 416,-148 607,-547 -67,-241 -108,-192 137,-133 143,-323 225,-543 209,-938l-312 -106 24 52c158,272 329,-72 26,265 -952,51 -1027,399 -1131,-672 -515,215 -639,224 -1231,239l299 980c6,-21 24,70 31,106 322,-897 108,-341 514,-305z"/>
   <path class="fil2" d="M12600 16474c399,225 205,-24 239,339 4,36 -96,241 -114,287 222,355 93,-79 575,242 -244,460 294,123 -261,370l330 576c395,-48 641,-96 892,-334 -142,-275 -294,-303 -361,-365 -260,-243 -142,-93 -137,-334 -20,-183 -11,-305 -81,-475 -247,-594 -28,-155 -303,-360 -209,-230 -121,-647 -57,-973 -322,-72 73,-157 -412,69 14,-362 -246,-98 245,-321l35 -451c-393,105 -361,274 -458,127 -100,-456 30,-85 -285,-214 -176,570 127,515 259,879 99,274 -61,607 -106,938z"/>
   <path class="fil1" d="M13379 16420c275,205 56,-234 303,360 70,170 61,292 81,475 318,441 38,18 529,218 214,-258 156,-90 334,-315 145,-185 95,-243 317,-478l117 -933 -723 207c-236,-420 -400,-531 -408,-1039l-335 -8c-57,574 -203,747 -215,1513z"/>
   <path class="fil4" d="M13166 5193c287,567 411,589 185,1304 -83,262 -117,392 -380,552l-261 61c-397,224 -463,233 -943,64l-83 418 -349 -344c-185,37 -124,-14 -96,212l86 77 88 482 195 -339 251 84c3,-18 6,-76 11,-63 6,14 17,-59 25,-74 10,-18 31,-61 43,-82l134 -184c14,310 44,2 -26,452 427,-1 204,-64 519,96 87,-493 48,-121 10,-487l196 282c359,-283 317,-146 547,-565l494 -473 132 -546 -90 -243c272,-141 228,20 492,-235 159,-154 57,-167 206,-315l172 -322c-413,-73 -293,5 -545,-213 -353,38 -152,-28 -216,144 -146,91 -582,207 -797,257z"/>
   <path class="fil11" d="M5289 12964l-106 358c566,332 538,73 1000,297l-850 622 312 106c16,395 -66,615 -209,938l265 43 178 -639c323,668 -115,901 -78,1589l39 814c770,491 -584,-238 339,67 221,73 -48,-368 302,278 -313,-654 113,-294 -255,-840 -17,-26 -138,85 -121,-308 32,-762 122,-388 243,-420l197 37c14,-477 3,-151 -192,-635l3 -143c-435,-236 -135,92 -164,-432 -1,-17 3,-378 -1,-471 -15,-453 -32,16 131,-505l-40 -502c-393,-146 -145,166 -236,-534l-264 -10 -307 -133 -186 423z"/>
   <path class="fil3" d="M4092 3283l379 -198 -115 484 99 383c45,-389 -1,-419 315,-639l401 -173c-91,-702 -1059,-2186 -1305,-2351 -490,-328 -137,-161 -330,83 131,641 207,1962 556,2411z"/>
   <path class="fil12" d="M7573 2231l156 22 -378 247 17 208c347,-155 310,-143 542,-469l352 146 769 -53c-14,15 -36,44 -50,58 -182,182 161,-113 -89,103 -224,193 51,62 -136,69 315,-84 559,194 811,358l354 -418 327 185c141,136 80,168 399,356l411 -232c266,803 -83,180 -43,431 55,350 156,173 582,272l268 -933 -127 39 -222 382c-485,-271 -209,181 -356,-431l-605 18c-160,-319 -89,-210 64,-610 -878,-10 -2339,-263 -3046,252z"/>
   <path class="fil5" d="M11378 22339c-175,-259 -135,-99 7,-305 153,298 166,-2 -7,305zm-532 -1004l-290 103 -126 570c-671,-142 -151,-190 -751,-173l47 337 -125 28 20 899c117,179 527,69 749,45l32 -434c-42,-40 -277,-19 -209,-333 47,-209 44,-141 303,-257 257,369 144,437 457,639l137 136 -23 -288 13 -76 846 -189c-13,-496 -160,-381 -255,-724 -30,-108 -138,-692 -361,-507 -109,481 56,108 -210,446l-254 -222z"/>
   <path class="fil1" d="M13812 6666l-494 473c-230,419 -188,282 -547,565l-196 -282c38,366 77,-6 -10,487 -315,-160 -92,-97 -519,-96l107 463 120 142 326 39 421 -45 181 -96c-28,-17 -64,-92 -79,-64l601 -113c311,-601 179,-476 718,-751 209,-547 48,-478 361,-1096 -227,-210 -1,-82 -199,-41 -208,441 -297,331 -791,415z"/>
   <path class="fil13" d="M12362 2202c-317,217 -219,98 -86,475l250 -482 127 367c224,-866 368,-763 654,-900 -65,505 -251,619 -373,1083l-447 45c119,214 223,252 417,361 -166,610 -177,163 -295,704 423,-63 278,25 553,-222 -216,-131 -50,-462 210,-938 390,-713 333,-61 264,-1016 -43,-601 1521,-1095 1769,-1486 -323,62 -684,162 -976,280 -397,160 -487,320 -805,446 -539,214 -1002,707 -1262,1283z"/>
   <path class="fil14" d="M11596 10564l-362 116c281,321 304,309 -230,526l-284 -421 9 50 -344 112 -52 82c454,637 -256,913 1039,1014l-311 64 248 497c613,92 62,74 367,-225l94 -338 127 32 380 -246 -14 -405 -466 46 435 -230 -56 -403c-261,-97 -149,301 -219,-192l-183 -268 -178 189z"/>
   <path class="fil10" d="M12058 14545l17 815c-194,88 -294,122 -480,149 -321,47 9,-219 -452,93 112,375 315,517 467,960 112,326 107,745 205,928 242,-276 47,-90 372,-149l128 -829 285 -38c45,-331 205,-664 106,-938 -132,-364 -435,-309 -259,-879 -82,-62 -49,-30 -142,-145 -1,-1 -115,-179 -150,-211l-97 244z"/>
   <path class="fil1" d="M4406 12306c-200,239 -920,848 -591,1197 442,42 725,-184 973,-379 -204,544 -312,311 -63,1091l608 26 850 -622c-462,-224 -434,35 -1000,-297l106 -358 -361 93 251 -944 -773 193z"/>
   <path class="fil14" d="M8818 20919l156 240c95,-294 -119,-112 180,-297 481,562 705,19 799,-485l-221 -103c-25,-15 -115,-74 -150,-112 433,-308 407,-642 554,-1193l-379 -72 -499 164 -461 -168 -212 165c26,978 530,1079 693,1194 282,201 -18,169 362,233l-216 215c-718,-301 -250,-510 -762,-643 -27,411 70,480 156,862z"/>
   <path class="fil9" d="M3738 3784c308,216 314,389 535,745 192,309 184,162 520,303 -218,59 -460,144 -696,66 -828,-275 -280,-188 -451,-131l154 -892c-243,210 -266,137 -353,758l-135 -629c-47,402 -70,598 38,988 172,621 154,318 -33,821l43 313 333 127 -35 -906 409 312c-19,-414 -99,-863 954,-524l-129 -187c1425,-375 1484,-105 2646,124 267,-76 48,36 90,-149l-385 -265c-456,203 -475,-42 -1102,-45 -738,-2 -391,190 -1202,-21l-328 -545c-343,205 -170,103 -388,147 -55,-267 -56,-118 -111,-272 -75,-212 -42,-26 -74,-309l54 -330c-393,138 -266,-31 -354,501z"/>
   <path class="fil3" d="M8542 24773l121 -380 1954 -13 216 -27 -178 -1154 -16 50 -43 234 -1172 3c-426,-41 -718,-116 -926,-316 -3,360 -51,1449 44,1603z"/>
   <path class="fil14" d="M5021 5135c588,271 248,268 1007,209 410,-74 150,-178 565,76 307,188 336,218 702,353 39,-309 59,-157 -44,-478l585 686c206,147 77,110 312,135 546,59 -250,-247 224,14 172,95 408,323 624,419 -22,-496 -1017,-1189 -1458,-1477 -1162,-229 -1221,-499 -2646,-124l129 187z"/>
   <path class="fil15" d="M13929 14915c8,508 172,619 408,1039l723 -207 -117 933 323 -655 -131 -556c1186,-1520 386,-1605 531,-3137 247,-103 -24,35 245,22 573,-26 393,-170 510,-344l21 -157 -1149 14c106,563 202,971 98,1568 -283,86 -161,76 -439,24l-554 -105c326,354 756,571 1188,281 -113,1093 -330,1413 -1122,2059l-535 -779z"/>
   <path class="fil11" d="M9567 2920l11 241 174 -74c355,-251 228,-195 743,-117l178 571 632 167 57 406 1247 -259c118,-541 129,-94 295,-704 -194,-109 -298,-147 -417,-361l-622 -209 -268 933c-426,-99 -527,78 -582,-272 -40,-251 309,372 43,-431l-411 232c-319,-188 -258,-220 -399,-356l-327 -185 -354 418z"/>
   <path class="fil2" d="M5541 18956l365 153 205 -326c226,285 85,157 -72,499 171,137 166,6 119,194 36,-594 -50,-63 252,-338 317,-5 324,267 279,570l-222 -106 30 107 133 247 356 -90 141 -357c3,2 24,12 37,11l-74 -363c-53,-435 -150,-869 205,-1114l-309 -80 84 -268 -318 -125 -597 237 95 572c236,-32 391,-89 545,-155l-62 665c-403,-101 -258,-85 -481,-479l-167 -862c-248,275 -84,151 -224,502 -161,402 -314,238 -59,671l-93 -111c-321,188 -172,-24 -168,346z"/>
   <path class="fil2" d="M2671 17434c-20,977 322,1584 841,2292l165 -126 -18 -258 180 -2 74 -338 139 -357c-74,-6 -65,-9 -69,-18 -159,-357 -99,-214 95,-215l-164 -277c-177,-230 -121,-84 -332,-327 -29,-34 -131,-175 -148,-202 -123,-207 -36,-34 -78,-216l-262 27 -203 -302 -220 319z"/>
   <path class="fil2" d="M4472 7415c-147,112 -47,-85 -207,332 -195,-480 -297,-512 -934,-487l235 620c60,95 139,168 212,246l752 72c-2,-17 -18,-80 -19,-65 0,1 -80,-148 29,-365 222,223 -172,83 470,244 -4,-8 -13,-33 -12,-22l101 234c633,-21 332,192 878,293l146 -230c-14,-13 -54,-61 -58,-42 0,1 -106,-57 -24,-274 6,-18 43,-53 48,-85 218,-201 77,8 210,-358l-257 137c-312,176 212,-68 -214,127 -1399,-828 -564,-907 -1247,-1006 107,324 195,67 37,351 -2,-4 -426,-182 87,-110 535,74 18,-47 311,163 -287,298 -49,284 -544,225z"/>
   <path class="fil16" d="M13343 20325l-421 267c-236,-145 -109,111 -160,-340 -414,242 -489,397 -450,662 105,717 82,-36 -181,514 -392,244 -107,4 -198,345l465 -99 450 562c-121,-173 -468,-467 -226,-806 258,97 338,224 440,468l406 -77 219 -954 -9 -154 -17 -420 -312 -179c-91,182 -213,-14 -6,211z"/>
   <path class="fil13" d="M5940 9650l-273 -216 -721 8 175 -229c158,-532 117,155 510,-611l754 129 383 3c-11,528 -280,916 -828,916zm-2162 -1524l-60 319c687,-116 1232,-353 1720,126 -201,749 -628,357 -858,737l131 474c289,-131 176,-72 598,-71 321,2 304,-39 631,-61 79,262 137,232 447,376 5,-189 -6,-431 247,-572 23,-13 184,-140 349,-23 376,267 121,-8 209,462 199,-78 205,110 146,-166 -518,-480 -754,-492 -95,-1173l466 -4 -76 -340c-579,64 67,89 -618,225l-295 42c-7,2 -231,88 -257,98l-212 -163 -274 105c-546,-101 -245,-314 -878,-293l-101 -234c-1,-11 8,14 12,22 -642,-161 -248,-21 -470,-244 -109,217 -29,366 -29,365 1,-15 17,48 19,65l-752 -72z"/>
   <path class="fil2" d="M3536 872c193,-244 -160,-411 330,-83 246,165 1214,1649 1305,2351l-401 173 324 -9 -12 183c235,-210 94,-145 305,-471 14,-21 48,-78 59,-86 112,-79 -135,-318 70,58 279,-322 265,340 221,-406 -358,-123 -81,-123 -336,-405l-385 -364c252,-188 132,-5 128,-337 -309,-825 -721,-277 -1642,-1278l-365 -327c53,544 56,610 399,1001z"/>
   <path class="fil14" d="M10751 5661c20,-26 54,-98 65,-76l247 -236c196,-229 105,-119 211,-401l188 402c425,-18 878,-148 1105,-468l11 419 432 -22 156 -86c215,-50 651,-166 797,-257l-1304 -265c-728,-86 -1283,1 -1881,399 -271,180 -987,969 -1152,1231 279,-156 -62,-91 378,2 373,-474 32,-352 515,-530 98,-37 139,-54 232,-112z"/>
   <path class="fil11" d="M12263 11422l138 27c155,494 351,832 249,1320l-266 -118 -261 -20c167,639 -108,-100 -8,640l-298 -133 -560 -256c-9,17 -69,135 -85,156 -169,224 -44,70 -201,235l-38 417 348 -117c646,52 249,122 764,-116 108,82 358,317 390,335l499 -533c26,26 201,209 207,214 245,194 37,52 195,119 9,-330 112,-151 -34,-274 -457,-404 -494,-546 -533,-1184l-161 -433c142,-279 -9,-132 283,-169l-417 -336 283 -253c-465,73 -273,188 -581,-108l56 403 -435 230 466 -46z"/>
   <path class="fil8" d="M12354 19510l133 137c-269,266 -234,176 -490,449 -173,184 -220,248 -504,343 265,675 450,310 401,997l237 -8c263,-550 286,203 181,-514 -39,-265 36,-420 450,-662 204,-357 77,-416 465,-656l116 729c-207,-225 -85,-29 6,-211l312 179 236 379 399 -222c-24,-10 -60,-15 -77,-20l-254 -62c-233,-105 -202,-118 -280,-303l-207 -458c-326,-242 -458,-512 -487,-912 -99,552 -73,739 -637,815z"/>
   <path class="fil1" d="M6460 10784l468 -138c6,40 53,356 53,364 2,28 -2,68 -1,91l-741 60 -187 35 -334 1222 64 256 264 10c91,700 -157,388 236,534 524,-81 886,-166 1236,-537l-362 155c-351,-258 -13,-168 -372,-9l-446 129c116,-937 370,-689 243,-1060 -548,220 -155,52 -577,388l181 -755 784 197 106 -382c361,-224 322,-39 623,-340l-222 4 -293 43 -139 -682c-350,117 -373,82 -584,415z"/>
   <path class="fil4" d="M6969 11726c224,283 567,243 921,187 -14,336 -110,559 -372,768 -350,371 -712,456 -1236,537l40 502 375 -432 603 -27c177,672 -50,650 104,1175 23,-6 53,-58 61,-39l218 -152c273,-140 118,52 346,-89 -114,-277 -14,-571 77,-902 -19,-544 -278,-863 92,-1287l-55 -479 -98 51c-381,517 -598,360 -1076,187z"/>
   <path class="fil8" d="M8249 26307c175,160 -182,100 351,199 -260,291 -150,24 -224,357l234 177c-56,98 -258,439 -258,439 -5,13 -18,46 -21,57l38 105c-721,29 -745,-313 -1214,462l1669 -140 407 -58c253,-99 -56,-169 318,26l78 -335 -707 145c76,-659 107,-760 717,-975 -276,-430 46,-90 -375,-329l-1013 -130z"/>
   <path class="fil1" d="M5701 15328l184 286c-28,6 -69,9 -86,11l-509 158 -483 560c-271,264 -89,-28 -251,356l654 857 184 23c-18,36 -19,16 -18,12l36 -124c5,-14 21,-59 32,-89l279 140 78 -1240c-37,-688 401,-921 78,-1589l-178 639z"/>
   <path class="fil1" d="M4208 18915l195 523 265 91 78 -712 209 935c59,-288 137,-273 407,-480l112 -316 77 -745c-188,-85 -446,-290 -617,-449 -377,425 -249,302 -838,614l112 539z"/>
   <path class="fil17" d="M7368 2708c-463,646 -645,767 -269,1020 -338,79 -162,42 -291,20 -9,-2 -37,-10 -47,-12 -510,-131 -186,-336 -774,-503l-321 -33c490,121 120,-93 524,207l164 586 634 84c495,-153 253,-17 710,-365l216 -498 521 11 -30 -299 -318 -234 175 -307 -352 -146c-232,326 -195,314 -542,469z"/>
   <path class="fil1" d="M11155 20763c16,446 -28,172 155,348 223,-185 331,399 361,507 95,343 242,228 255,724l-846 189 -13 76 1005 24 81 368 92 148 450 23c175,228 193,-301 217,-407 -50,-23 -185,-609 -979,-990 91,-341 -194,-101 198,-345l-237 8c49,-687 -136,-322 -401,-997l-338 324z"/>
   <path class="fil18" d="M7204 15183l-55 484 -155 -63 46 97c435,-156 55,-111 373,-155l-65 385 -558 51c0,43 7,97 10,128 24,199 180,288 -144,174l-18 486 256 -141 104 95 19 -490c790,-62 161,-4 717,336 358,-375 168,190 765,-340l150 423c106,247 -64,63 259,303l326 57c4,-59 32,-432 32,-437l-69 -338c-8,-31 -28,-69 -46,-102l37 465c-336,-75 -313,84 -385,-382l329 -67c-359,-563 240,-159 -302,-517l-98 279 -668 357c-327,-104 -192,-121 -422,-470l227 -546 -90 -18c-376,66 331,-201 -126,53l-449 -107z"/>
   <path class="fil14" d="M8435 3225l-521 -11 -216 498 -10 279c-384,121 -168,-1 -570,250l494 305c888,-35 340,-145 1030,-462 293,407 63,16 57,384l128 -31 68 0 31 -90 8 -453 -84 -498c465,-446 -19,-101 194,-329l208 -79c-316,-179 -87,-128 -561,-120 -56,271 -76,475 -83,730 -346,-149 -340,-141 -778,-177 401,-230 169,-73 605,-196z"/>
   <path class="fil11" d="M6586 2427c-507,192 -232,-136 -666,226 -423,352 98,194 -404,335 -205,-376 42,-137 -70,-58 -11,8 -45,65 -59,86 -211,326 -70,261 -305,471l155 505 87 -69c54,-420 -103,-102 137,-411l362 -41c228,297 -56,288 419,523 184,91 483,143 691,198l55 -115 -634 -84 -164 -586c-404,-300 -34,-86 -524,-207l321 33c556,-486 -502,108 173,-116 575,-191 -373,-134 539,14 105,-402 253,-431 652,-631l378 -247 -156 -22 -987 196z"/>
   <path class="fil1" d="M10655 23199l178 1154 278 396c165,219 -56,-6 142,158l-15 -1428c496,535 385,1519 549,2192l167 -2095 -137 -196c-14,-22 -36,-64 -52,-90 -79,-133 -43,-220 -477,-463 -25,672 -83,513 -155,615l-238 -416 -240 173z"/>
   <path class="fil1" d="M8590 8164l-203 34c55,505 443,1179 666,1634l135 -555c43,30 68,39 69,81l122 675 311 -723c129,-298 311,-594 404,-897l-378 40c-124,338 -125,459 -359,707 36,-626 260,-1052 -101,-1609 -117,108 -126,6 -195,268 -20,73 -21,423 -19,515 6,418 69,602 116,994l-568 -1164z"/>
   <path class="fil14" d="M9507 11341c78,455 235,219 42,693l508 198 -469 -25 -41 196 94 626c185,61 70,60 312,61 18,1 289,-36 312,-39 62,-92 146,-315 158,-499 29,-477 4,-362 -317,-519 368,-415 326,-490 163,-983 -321,-24 -70,59 -170,-101 -5,-8 -13,-49 -17,-56l-252 -40 4 400 -327 88z"/>
   <path class="fil10" d="M12187 17341c-394,1170 981,1923 -17,1378 35,182 78,294 92,385 70,436 174,-191 -8,138l100 268c564,-76 538,-263 637,-815l-245 -74c30,-442 -54,-609 164,-1024 152,-109 55,-67 129,115 555,-247 17,90 261,-370 -482,-321 -353,113 -575,-242l-257 352 -281 -111z"/>
   <path class="fil16" d="M7769 14808l-187 203 197 226 90 18 87 14 573 -58c316,244 79,117 301,424 542,358 -57,-46 302,517l473 -203c297,-439 491,-478 616,-623 14,-17 35,-40 49,-59 15,-22 31,-50 45,-73 16,-25 30,-60 44,-85l441 -177 -8 -68 -457 -98c-383,564 162,232 -550,350 -307,432 -102,200 -315,721 -311,-193 -207,-69 -322,-518 -116,-612 -297,-337 -776,-639l-603 128z"/>
   <path class="fil14" d="M7518 12681c262,-209 358,-432 372,-768 -354,56 -697,96 -921,-187l-784 -197 -181 755c422,-336 29,-168 577,-388 127,371 -127,123 -243,1060l446 -129c359,-159 21,-249 372,9l362 -155z"/>
   <path class="fil13" d="M5801 16278l-78 1240 -436 420c266,163 123,16 264,273l-77 745 67 0c-4,-370 -153,-158 168,-346l93 111c-255,-433 -102,-269 59,-671 140,-351 -24,-227 224,-502l167 862 -2 -31 -95 -572 597 -237c5,-443 -129,-507 243,-674l3 -172 -104 -95 -256 141 -95 -279 -291 -261 96 -361c-121,32 -211,-342 -243,420 -17,393 104,282 121,308 368,546 -58,186 255,840 -350,-646 -81,-205 -302,-278 -923,-305 431,424 -339,-67l-39 -814z"/>
   <path class="fil1" d="M10057 27938c-118,464 -73,341 -396,677 -138,-363 -185,-386 -24,-560l-88 -124c-374,-195 -65,-125 -318,-26l157 1589c433,-148 259,76 914,-858 635,-905 141,-997 87,-689 752,-49 144,27 428,-258 -792,115 -571,202 -760,249z"/>
   <path class="fil12" d="M7157 20483l-388 304 493 4c128,382 160,147 -54,554 -124,-311 13,-59 -401,-358l-34 344 -552 222 156 615c543,-142 50,-378 708,-246 208,-156 118,-133 232,-423 596,-32 74,-49 314,182l191 -384c-161,-306 -77,36 133,-369l-283 -521c-160,258 -194,259 -515,76z"/>
   <path class="fil1" d="M3638 15694c-151,701 -44,497 213,1101 58,137 121,314 181,466 116,293 188,138 49,330l195 262c385,-609 87,-1380 79,-1979 -520,-211 -58,-142 -473,-493l-244 313z"/>
   <path class="fil11" d="M4355 15874c8,599 306,1370 -79,1979l-195 -262 -66 124c-413,-102 -279,42 -426,-377l-233 52c42,182 -45,9 78,216 17,27 119,168 148,202 211,243 155,97 332,327l584 -45c245,-434 208,-416 176,-873 422,499 60,292 536,339l-654 -857c162,-384 -20,-92 251,-356l483 -560 9 -365c-191,399 -296,356 -607,547 -204,-141 -88,-46 -337,-91z"/>
   <path class="fil6" d="M14328 3006l166 214c-367,727 -561,858 -1112,1376l-723 -43 0 118 1304 265c64,-172 -137,-106 216,-144 252,218 132,140 545,213l-172 322 262 -75 -22 -295c-235,-378 49,51 -185,-227 -248,-296 11,117 -146,-185l139 -312 -331 84c63,-557 338,-795 394,-1571 240,21 178,-200 434,172 -48,-248 17,-143 -242,-265 -424,99 -216,114 -527,353z"/>
   <path class="fil1" d="M8262 2385l-175 307 318 234 30 299c-436,123 -204,-34 -605,196 438,36 432,28 778,177 7,-255 27,-459 83,-730 474,-8 245,-59 561,120l-208 79c-213,228 271,-117 -194,329l84 498c354,-106 87,-143 382,46l-12 -503 466 -83c-186,-513 -27,-133 -192,-193l-11 -241c-252,-164 -496,-442 -811,-358 187,-7 -88,124 136,-69 250,-216 -93,79 89,-103 14,-14 36,-43 50,-58l-769 53z"/>
   <path class="fil14" d="M7677 21963l-78 61 90 187 -282 53 -34 90c276,77 396,-141 181,162 868,-10 571,-336 1093,-279 204,538 76,211 -2,284 243,335 198,554 578,616l63 -118 -199 -197c266,-616 -65,-260 462,-348l-168 -143 -274 -300 -106 -184 -191 108 -270 7 -98 -288 -372 -76 -393 365z"/>
   <path class="fil11" d="M7169 14018c235,1053 71,438 600,790l603 -128c53,-665 -168,-148 185,-653l-213 -324 -238 -449c-91,331 -191,625 -77,902 -228,141 -73,-51 -346,89l-218 152c-8,-19 -38,33 -61,39 -154,-525 73,-503 -104,-1175l-603 27c239,227 262,-347 215,424 303,45 -16,64 -155,318l412 -12z"/>
   <path class="fil18" d="M9962 26578l-325 188c-610,215 -641,316 -717,975l707 -145 199 -106 -10 -288c270,-82 174,-194 470,-474 190,183 230,224 414,420l94 22 -23 332c288,-252 310,-392 476,-754 -3,-2 -806,139 -942,-286 -17,-54 -60,-51 -87,-79l-256 195z"/>
   <path class="fil17" d="M10710 13760c-292,360 -160,50 -264,481 313,548 96,18 468,435 -27,338 24,148 -122,188l8 68 6 219 10 -6 225 17 32 -581c281,400 -60,99 341,331 129,-203 -165,-146 318,-178 40,128 184,-42 -16,345l138 200 83 -683 -200 153c20,-272 67,-454 -19,-693 -279,135 -310,251 -473,505 -178,-546 -154,-226 202,-849l-166 -139 -348 117 38 -417 -102 -116 -159 603z"/>
   <path class="fil14" d="M13162 3633c-275,247 -130,159 -553,222l-1247 259 -281 102 -159 265 391 100 456 -117c593,-389 1278,-90 1971,-697l43 -276c-183,-254 139,-157 -405,-232 -268,202 -142,-130 -216,374z"/>
   <path class="fil2" d="M8542 24773l-181 406 396 124c167,-291 -45,-93 226,-234 3,-1 318,-93 331,-96 290,-66 501,-73 795,-130l448 -164 202 -78 -142 -221 -1954 13 -121 380z"/>
   <path class="fil1" d="M7090 19157l484 -788c94,716 108,1161 -487,1276 306,278 148,130 493,252 -67,391 47,236 -229,379 -240,-288 -82,-186 -398,-358l11 251c175,107 93,-49 193,314 321,183 355,182 515,-76l33 -496c250,137 -56,151 368,-41 -253,-422 -318,-835 -136,-1318l-278 -86 68 -204 -378 -4 -54 -215c-355,245 -258,679 -205,1114z"/>
   <path class="fil14" d="M9316 3940l22 324c130,165 -13,33 291,124 109,-208 -136,-154 272,-190 -212,-158 10,56 -148,-238 135,-242 -152,-138 334,-210 141,272 91,217 275,447l719 19 45 -181 -594 -217c-55,-854 -137,-433 -780,-731l-174 74c165,60 6,-320 192,193l-466 83 12 503z"/>
   <path class="fil9" d="M11067 22607l23 288 -137 -136c-317,166 -235,1 -314,490l16 -50 240 -173 238 416c72,-102 130,57 155,-615 434,243 398,330 477,463 16,26 38,68 52,90l137 196 -12 971c260,-152 409,97 359,-735 -18,-301 -83,-552 -148,-813l-81 -368 -1005 -24z"/>
   <path class="fil7" d="M8701 18358c624,237 860,245 1454,-105l150 59 442 -246 -97 -124c-828,-125 -609,589 -1303,-190l-175 137 -99 -265 -570 -98c-64,580 152,312 17,786l181 46z"/>
   <path class="fil1" d="M3718 8445c164,350 486,688 862,863 230,-380 657,12 858,-737 -488,-479 -1033,-242 -1720,-126z"/>
   <path class="fil1" d="M7085 21922l63 239 -315 48c-39,469 -319,520 80,916 551,8 -51,31 539,-340 254,-160 462,-244 793,-83l-37 5 437 -186c78,-73 206,254 2,-284 -522,-57 -225,269 -1093,279l-272 33c2,-322 -127,-322 91,-195l34 -90c124,-404 1,-137 192,-240l78 -61 -46 -282c-240,-231 282,-214 -314,-182 -114,290 -24,267 -232,423z"/>
   <path class="fil4" d="M5340 21601c107,350 30,263 356,460 355,-342 374,-309 723,-928 258,-457 10,-31 149,-647l396 -317 -11 -251 33 -52 -356 90 -133 -247 -227 0c116,932 -193,1174 -577,1909l-353 -17z"/>
   <path class="fil8" d="M5696 22061l435 396c496,5 302,-15 702,-248l315 -48 -63 -239c-658,-132 -165,104 -708,246l-156 -615 552 -222 34 -344 -38 -200 388 -304c-100,-363 -18,-207 -193,-314l-396 317c-139,616 109,190 -149,647 -349,619 -368,586 -723,928z"/>
   <path class="fil1" d="M14938 3973c385,113 368,-64 220,538 -22,89 -147,332 -185,447l349 146 196 -89c8,-509 148,-627 141,-1137 -11,-809 -325,-842 -562,-960l-159 1055z"/>
   <path class="fil12" d="M8184 25361l285 68c-518,498 -268,230 -220,878l1013 130c421,239 99,-101 375,329l325 -188c-298,-136 -682,-174 -954,-506 -299,-363 210,-579 -251,-769l-396 -124 181 -406c-522,375 -128,503 -477,-42l119 630z"/>
   <path class="fil6" d="M8541 20829l-586 99c-210,405 -294,63 -133,369 130,-189 224,176 248,301l372 76 368 281 191 -108 106 184c143,-374 0,-204 303,-414 -378,-202 -413,-69 -436,-458l-156 -240 -248 -228 -29 138z"/>
   <path class="fil2" d="M7612 4546l615 774 -108 11c270,375 450,276 780,308l-97 -311c-267,39 -64,167 -272,-47 45,-354 -52,-126 212,-187 56,-196 -158,-55 200,-196l-47 -461 -68 0 -171 354c-144,-295 -165,-70 43,-323 6,-368 236,23 -57,-384 -690,317 -142,427 -1030,462z"/>
   <path class="fil8" d="M9148 15319c115,449 11,325 322,518 213,-521 8,-289 315,-721 712,-118 167,214 550,-350l457 98c146,-40 95,150 122,-188 -372,-417 -155,113 -468,-435 104,-431 -28,-121 264,-481 -501,60 -123,-106 -493,315 -84,96 -232,279 -299,384 -280,437 -212,779 -770,860z"/>
   <path class="fil1" d="M6474 7925c-134,129 -218,182 -223,487l212 163c26,-10 250,-96 257,-98l295 -42c685,-136 39,-161 618,-225 253,-144 367,-299 666,-321 -288,-495 -441,-253 -461,-318 -6,-19 -33,-10 -47,-19 -287,250 -116,131 -506,273 -277,100 -93,149 -336,36l-475 64z"/>
   <path class="fil1" d="M3897 6705l74 24c226,606 31,319 501,686 495,59 257,73 544,-225 -293,-210 224,-89 -311,-163 -513,-72 -89,106 -87,110 158,-284 70,-27 -37,-351l-319 -210c146,241 541,-521 -448,-962 -28,744 215,481 83,1091z"/>
   <path class="fil13" d="M11281 13573l166 139c-356,623 -380,303 -202,849 163,-254 194,-370 473,-505 86,239 39,421 19,693l200 -153 121 -51 97 -244c35,32 149,210 150,211 93,115 60,83 142,145l-12 -865c-32,-18 -282,-253 -390,-335 -515,238 -118,168 -764,116z"/>
   <path class="fil2" d="M12245 23147l84 314 693 -44c251,-382 79,-202 442,-490l77 630 386 30 -302 -88 134 -855 -79 40c-151,215 -35,70 -228,241 -35,-146 -322,18 71,-347 -412,-67 -484,15 -675,-342l-450 -562 -465 99c794,381 929,967 979,990 -24,106 -42,635 -217,407l-450 -23z"/>
   <path class="fil19" d="M10320 25904l-179 253 77 226c27,28 70,25 87,79 136,425 939,284 942,286l526 -420 -375 -101c-28,-525 213,-548 -246,-776 38,436 13,609 -330,892 -407,-288 125,-284 -502,-439z"/>
   <path class="fil6" d="M9431 21617c320,139 170,-6 248,218 600,-17 80,31 751,173l126 -570 290 -103c-13,-16 -33,-41 -39,-49l-102 -133c-12,-17 -77,-65 -85,-111 -6,-37 -34,-45 -52,-67l-360 -443c-170,337 -98,417 -319,653 -212,225 -222,127 -458,432z"/>
   <path class="fil1" d="M13267 8498c-142,364 222,362 566,401 500,57 236,-79 819,-117 229,-220 101,-52 263,-340 -32,-23 -75,-49 -102,-60l-377 -51c-64,-197 202,-7 -236,-342l-933 509z"/>
   <path class="fil2" d="M4568 20822c167,433 332,712 772,779l353 17c384,-735 693,-977 577,-1909l-123 -144c172,672 -53,1166 -314,1193 -287,29 375,42 -180,-27 -28,-3 -94,15 -115,-29 -23,-47 -82,-26 -125,-33l99 312c13,26 116,110 144,135 -423,28 -156,-27 -385,-108 -11,-4 -45,-9 -58,-13l-645 -173z"/>
   <path class="fil14" d="M4455 3952c207,-35 178,-93 156,95l328 545 1252 -41c-534,-327 -502,-6 -954,-559l-155 -505 12 -183 -324 9c-316,220 -270,250 -315,639z"/>
   <path class="fil11" d="M3638 15694l244 -313c415,351 -47,282 473,493l-270 -960 -220 -8 -404 476 -150 -216 -396 308c-61,-67 -205,-229 -222,-243l-573 -673 33 166c91,409 258,785 551,1060 186,-20 64,103 425,-295l509 205z"/>
   <path class="fil6" d="M6131 22457c142,212 251,472 408,632 130,134 327,226 502,388l111 60c483,-531 -1,94 383,-215 283,-228 182,-316 212,-421 603,223 279,139 498,-199 -331,-161 -539,-77 -793,83 -590,371 12,348 -539,340 -399,-396 -119,-447 -80,-916 -400,233 -206,253 -702,248z"/>
   <path class="fil15" d="M8421 12099l-111 114 701 22 -36 1097c331,-267 99,177 278,-390 188,386 62,388 274,743 127,212 284,-29 110,518l517 -613 -588 47c-29,-319 -72,-378 -83,-630l64 -604 41 -196c-335,-181 -388,-126 -613,-357l-154 263 -400 -14z"/>
   <path class="fil11" d="M12493 9876c229,136 199,285 227,598l243 -42c13,-1 37,-1 39,14 3,23 91,259 87,19 579,-167 565,-29 766,-711l150 324c60,-304 105,-398 -211,-471l-234 -20c-618,99 -539,126 -1067,289z"/>
   <path class="fil14" d="M11335 19786l163 233 267 -108 299 -672c-343,-384 -137,-253 -694,-259 443,-78 346,43 511,-423 -168,-395 65,-277 -348,-258 -60,360 -569,568 -97,1299l-101 188z"/>
   <path class="fil20" d="M9132 16152l19 -16c18,33 38,71 46,102l69 338c0,5 -28,378 -32,437l-326 -57 164 422 1 246 99 265 175 -137c75,-713 433,-417 414,-1266l84 -367c-366,-75 -137,22 -240,-170l-473 203z"/>
   <path class="fil1" d="M10402 22710l166 -209c-19,294 121,142 -166,209zm0 0l-32 434c-222,24 -632,134 -749,-45l-133 0 -265 38c68,259 -187,8 201,349l1172 -3 43 -234c79,-489 -3,-324 314,-490 -313,-202 -200,-270 -457,-639 -259,116 -256,48 -303,257 -68,314 167,293 209,333z"/>
   <path class="fil9" d="M13010 5279l214 404c-553,208 455,0 -235,25 -394,14 52,-78 -139,6l217 530 -304 479 -607 -220c28,16 64,36 83,49l360 304c-166,200 86,232 -524,150l635 104 261 -61c263,-160 297,-290 380,-552 226,-715 102,-737 -185,-1304l-156 86z"/>
   <path class="fil4" d="M7155 28103c469,-775 493,-433 1214,-462l-38 -105c3,-11 16,-44 21,-57 0,0 202,-341 258,-439l-234 -177c-178,293 -159,353 -480,468 -173,62 -112,27 -250,18l-354 -43c3,50 -4,117 0,150l92 177c-904,-398 -462,-163 -677,-32 3,501 -149,627 448,502z"/>
   <path class="fil4" d="M8278 17130c-70,341 11,74 -128,333 -5,10 -108,149 -133,195 -351,-102 -113,-122 -476,-23l250 84 10 198 881 682 19 -241 -181 -46c135,-474 -81,-206 -17,-786l570 98 -1 -246c-348,-155 -229,-22 -384,-352 -198,229 -90,253 -410,104z"/>
   <path class="fil11" d="M13156 11348l35 80c264,651 -343,-160 12,434l181 33 367 22c368,-583 538,-1003 399,-1642l-355 1212c-40,-129 -74,-398 -292,-708 -422,474 -283,-53 -347,569z"/>
   <path class="fil15" d="M14603 6251c198,-41 -28,-169 199,41 -313,618 -152,549 -361,1096 -539,275 -407,150 -718,751l-601 113c15,-28 51,47 79,64l-181 96 247 86 933 -509 -26 -64c-16,-165 -223,217 44,-241 650,-314 161,-522 966,-733l199 357 27 -638 -450 249c-126,-194 -88,175 -74,-277 3,-92 24,-203 30,-326 22,-484 75,-241 -118,-542l-65 386 -130 91z"/>
   <path class="fil14" d="M8983 13386l-8 -54 36 -1097 -701 -22 -95 515c98,389 87,313 328,657l440 1z"/>
   <path class="fil14" d="M5324 3923c583,68 1496,406 1919,735l385 265 491 408 108 -11 -615 -774c-114,-41 -222,-63 -331,-117 -359,-180 -112,-35 -348,-237 -208,-55 -507,-107 -691,-198 -475,-235 -191,-226 -419,-523l-362 41c-240,309 -83,-9 -137,411z"/>
   <path class="fil17" d="M6752 14293l298 -76c-30,451 89,309 -285,469l-13 -393zm-299 417c392,201 310,157 342,611l254 -352 155 214 449 107c457,-254 -250,13 126,-53l-197 -226 187 -203c-529,-352 -365,263 -600,-790 -181,43 -456,10 -417,275 -268,157 -57,-172 -299,417z"/>
   <path class="fil13" d="M6322 13720c-163,521 -146,52 -131,505 4,93 0,454 1,471 29,524 -271,196 164,432 -40,-343 -124,-324 97,-418 242,-589 31,-260 299,-417 -39,-265 236,-232 417,-275l-412 12c139,-254 458,-273 155,-318 47,-771 24,-197 -215,-424l-375 432z"/>
   <path class="fil9" d="M13944 6120c652,-138 448,-241 854,-346 193,301 140,58 118,542l258 -224 194 165c-6,-595 -12,-485 -217,-985l-174 -11 -103 529 -60 -538 -262 75c-149,148 -47,161 -206,315 -264,255 -220,94 -492,235l90 243z"/>
   <path class="fil14" d="M7698 11004c-301,301 -262,116 -623,340l-106 382c478,173 695,330 1076,-187l-148 -865 -168 -89 -31 419z"/>
   <path class="fil14" d="M14600 4233l338 -260 159 -1055c-256,-372 -194,-151 -434,-172 -56,776 -331,1014 -394,1571l331 -84z"/>
   <path class="fil1" d="M13560 9587l234 20c159,-233 -105,-14 307,-301 -270,-61 -684,-200 -901,-280 -831,-310 -263,-94 -1083,-183 229,440 370,679 905,672 63,-68 97,-585 538,72z"/>
   <path class="fil1" d="M8073 19870l166 180c-27,195 6,148 -199,276l408 -106 93 609 29 -138 248 228c-86,-382 -183,-451 -156,-862 512,133 44,342 762,643l216 -215c-380,-64 -80,-32 -362,-233 -163,-115 -667,-216 -693,-1194l-164 0c90,426 136,771 -348,812z"/>
   <path class="fil2" d="M5237 3992c452,553 420,232 954,559l-1252 41c811,211 464,19 1202,21 627,3 646,248 1102,45 -423,-329 -1336,-667 -1919,-735l-87 69z"/>
   <path class="fil6" d="M4070 12056l-23 239 359 11 773 -193 -251 944 361 -93 186 -423 307 133 -64 -256c-219,-256 -126,-20 -74,-589 -547,173 -214,109 -637,99 -91,74 14,42 -205,121 -4,2 -262,60 -275,61 -360,39 -119,47 -457,-54z"/>
   <path class="fil13" d="M7897 10674l148 865 98 -51 225 -270c381,124 38,110 426,32 54,709 14,457 181,600 -148,-1323 66,-616 -430,-1734l-211 831 -437 -273z"/>
   <path class="fil19" d="M6998 16724l-3 172c550,20 257,0 685,157 264,97 299,64 598,77 -109,-473 -69,-488 -544,-560 -556,-340 73,-398 -717,-336l-19 490z"/>
   <path class="fil2" d="M12362 2202l-582 46 -169 223 127 149 127 -39 622 209 447 -45c122,-464 308,-578 373,-1083 -286,137 -430,34 -654,900l-127 -367 -250 482c-133,-377 -231,-258 86,-475z"/>
   <path class="fil4" d="M9826 27490l-199 106 -78 335 88 124 164 76 256 -193c189,-47 -32,-134 760,-249l-46 -187 23 -332 -94 -22c-592,22 -385,49 -874,342z"/>
   <path class="fil19" d="M13468 21821l142 71c-218,208 -116,54 -233,360 279,185 69,-23 146,326 -393,365 -106,201 -71,347 193,-171 77,-26 228,-241l79 -40c294,-217 426,-726 428,-1127 -311,34 -196,-37 -348,197l-57 -420 -314 527z"/>
   <path class="fil2" d="M12991 18695c29,400 161,670 487,912l0 -737c210,-617 380,-190 186,-391l-472 -12c-196,-422 -299,-401 -282,-870 -218,415 -134,582 -164,1024l245 74z"/>
   <path class="fil4" d="M14600 4233l-139 312c157,302 -102,-111 146,185 234,278 -50,-151 185,227l22 295 60 538 103 -529 174 11 224 38 -53 -206 -349 -146c38,-115 163,-358 185,-447 148,-602 165,-425 -220,-538l-338 260z"/>
   <path class="fil1" d="M7338 9727l454 -51c79,-304 134,-110 -44,-351 -285,184 297,84 -485,-180 241,-351 303,-232 446,-595l-466 4c-659,681 -423,693 95,1173z"/>
   <path class="fil2" d="M11302 6658l-86 181c398,140 83,12 271,134l280 201c480,169 546,160 943,-64l-635 -104c610,82 358,50 524,-150l-360 -304c-19,-13 -55,-33 -83,-49l-457 237 -285 -233 -112 151z"/>
   <path class="fil14" d="M14014 3491c-209,1202 -1414,495 -1604,1117l249 -55 723 43c551,-518 745,-649 1112,-1376l-166 -214 -339 165 25 320z"/>
   <path class="fil1" d="M13687 20867c315,128 469,171 544,492 410,-211 455,-234 746,-533l-62 -366 -559 231c-178,-121 -103,-5 -60,-241l-399 222 -236 -379 17 420 9 154z"/>
   <path class="fil15" d="M10914 9595c17,22 42,29 50,65 7,36 36,52 46,65 300,376 167,256 483,399l-197 76c316,273 91,37 300,364l178 -189 183 268 67 -407 -160 -233 629 -127c-816,191 -641,-226 -766,-635l-41 305c-238,-99 -242,71 -772,49z"/>
   <path class="fil13" d="M7148 6829l-477 -88c-1,-1 -1,-52 -143,-194l81 429c413,174 166,-36 475,313l459 -262c-62,525 -7,186 181,391l92 -113 -50 -307c138,-113 118,-51 146,-416 -279,-249 -89,-106 -384,-195 -189,348 -143,502 -380,442z"/>
   <path class="fil15" d="M11023 8255l-61 269 -570 -199 59 496 124 -222c414,291 205,267 704,196l73 -238c411,47 117,-122 463,194l121 36c272,-131 219,-69 611,-105l52 -225 -326 -39 -120 -142 146 232c-531,81 -191,52 -577,-64 -251,-75 0,4 -428,-45l5 -352c-30,23 -69,44 -94,61 -26,18 -72,93 -92,70 -21,-25 -63,49 -90,77z"/>
   <path class="fil2" d="M7727 18262l-68 204 278 86c449,241 327,1 484,506l164 0 212 -165 461 168 -160 -224c-214,46 -14,35 -18,-5 -17,-181 88,164 -23,-149l-375 -84 -881 -682c-122,143 -119,-225 -74,345z"/>
   <path class="fil1" d="M14174 7925l399 9c-35,-268 -195,182 213,-66 276,-167 115,33 268,-362l316 50 13 -248 -199 -357c-805,211 -316,419 -966,733 -267,458 -60,76 -44,241z"/>
   <path class="fil1" d="M9901 4198l23 329 -133 673 326 -35 515 -881 -404 -105c23,-3 90,27 134,18 -184,-230 -134,-175 -275,-447 -486,72 -199,-32 -334,210l296 26 -148 212z"/>
   <path class="fil13" d="M7064 24229l-1018 -98 863 167 19 1496 126 130c274,-242 96,-133 498,-216 -396,-43 -153,94 -426,-184 104,-444 142,-318 343,-350l-106 -1224c-207,395 -34,607 -152,1242l-147 -963z"/>
   <path class="fil5" d="M8073 19870c484,-41 438,-386 348,-812 -157,-505 -35,-265 -484,-506 -182,483 -117,896 136,1318z"/>
   <path class="fil6" d="M3914 18135l164 277c-194,1 -254,-142 -95,215 4,9 -5,12 69,18l-139 357 295 -87 -112 -539c589,-312 461,-189 838,-614 171,159 429,364 617,449 -141,-257 2,-110 -264,-273l436 -420 -279 -140c-11,30 -27,75 -32,89l-36 124c-1,4 0,24 18,-12l-184 -23c-476,-47 -114,160 -536,-339 32,457 69,439 -176,873l-584 45z"/>
   <path class="fil12" d="M11030 25523l122 -72c459,228 218,251 246,776l375 101 607 -862 -462 -67 -131 272 -138 361c-33,-291 -31,-611 -217,-898 -412,192 -231,18 -402,389z"/>
   <path class="fil16" d="M5987 3233c588,167 264,372 774,503 10,2 38,10 47,12 129,22 -47,59 291,-20 -376,-253 -194,-374 269,-1020l-17 -208c-399,200 -547,229 -652,631 -912,-148 36,-205 -539,-14 -675,224 383,-370 -173,116z"/>
   <path class="fil14" d="M7672 20407l283 521 586 -99 -93 -609 -408 106c205,-128 172,-81 199,-276l-166 -180c-424,192 -118,178 -368,41l-33 496z"/>
   <path class="fil2" d="M5667 9434l375 -341c155,-164 147,-196 343,-362l-754 -129c-393,766 -352,79 -510,611l-175 229 721 -8z"/>
   <path class="fil9" d="M5178 6141l57 317 -355 132 788 434 224 72 136 -218 -424 -561c-391,-113 227,58 -188,4l-13 -641 -93 -37 -180 97 48 401z"/>
   <path class="fil20" d="M10109 24843l-89 922c328,-49 548,-221 621,-578 447,290 175,141 431,-47 -429,-744 -30,418 -515,-461l-448 164z"/>
   <path class="fil13" d="M3922 10147l359 68c-37,296 -171,1055 -472,1271 286,184 188,33 245,256l63 218c176,-435 146,-353 404,-721 -154,-158 -192,124 -94,-523 27,-180 67,-257 98,-470l-32 -383 -571 284z"/>
   <path class="fil6" d="M14174 7925l26 64c438,335 172,145 236,342l377 51c27,11 70,37 102,60 -162,288 -34,120 -263,340 545,-193 626,-666 718,-1226l-316 -50c-153,395 8,195 -268,362 -408,248 -248,-202 -213,66l-399 -9z"/>
   <path class="fil15" d="M11216 6839l13 371c-301,-189 -220,-141 -282,-429l269 58zm-662 107c297,282 317,437 685,514 -28,-226 -89,-175 96,-212l349 344 83 -418 -280 -201c-188,-122 127,6 -271,-134l86 -181 -126 -116c-190,-123 -236,-49 -405,312 -178,-383 14,-179 -238,-472l21 564z"/>
   <path class="fil20" d="M12848 22236c191,357 263,275 675,342 -77,-349 133,-141 -146,-326 117,-306 15,-152 233,-360l-142 -71 -406 77c-102,-244 -182,-371 -440,-468 -242,339 105,633 226,806z"/>
   <path class="fil9" d="M10650 17942l97 124 122 352 -6 496c455,-332 198,-467 146,-1040l760 -127c168,-226 255,42 70,-225 -507,161 -219,173 -695,-105l-141 13c-342,208 -217,6 -353,512z"/>
   <path class="fil14" d="M7090 19157l74 363c-13,1 -34,-9 -37,-11l-141 357 -33 52c316,172 158,70 398,358 276,-143 162,12 229,-379 -345,-122 -187,26 -493,-252 595,-115 581,-560 487,-1276l-484 788z"/>
   <path class="fil11" d="M7576 17668l-35 -33c363,-99 125,-79 476,23 25,-46 128,-185 133,-195 139,-259 58,8 128,-333 -299,-13 -334,20 -598,-77 -428,-157 -135,-137 -685,-157 101,253 -207,204 221,184l-192 208c386,187 303,121 552,380z"/>
   <path class="fil1" d="M6385 8731c-196,166 -188,198 -343,362l-375 341 273 216c548,0 817,-388 828,-916l-383 -3z"/>
   <path class="fil6" d="M13302 13318c146,123 43,-56 34,274l434 27 -251 94c384,26 148,-100 405,157l-133 479c23,4 150,-312 164,-363 227,-796 -10,-236 299,-558 99,-103 128,-104 165,-333 -492,-54 -322,16 -685,282l-194 -651 -238 592z"/>
   <path class="fil1" d="M11257 12882l560 256c146,-446 118,-339 -141,-759 -305,299 246,317 -367,225l-248 -497 -445 47c263,493 230,476 641,728z"/>
   <path class="fil7" d="M10555 2589l100 -366 482 48 23 300c147,612 -129,160 356,431l222 -382 -127 -149 169 -223 -1161 -269c-153,400 -224,291 -64,610z"/>
   <path class="fil11" d="M13039 17712c-74,-182 23,-224 -129,-115 -17,469 86,448 282,870l472 12c378,-222 294,-194 657,-38 -43,-471 -80,-479 -29,-968 -491,-200 -211,223 -529,-218 -5,241 -123,91 137,334 67,62 219,90 361,365 -251,238 -497,286 -892,334l-330 -576z"/>
   <path class="fil11" d="M11918 25399l462 67 542 -982 -687 -17c-109,612 -159,458 -317,932z"/>
   <path class="fil13" d="M8701 18358l-19 241 375 84c111,313 6,-32 23,149 4,40 -196,51 18,5l160 224 499 -164 44 -288c435,-18 74,-144 408,105l96 -402 -150 -59c-594,350 -830,342 -1454,105z"/>
   <path class="fil9" d="M10751 5661c385,159 467,50 873,-94 312,-111 633,-175 954,-266l-11 -419c-227,320 -680,450 -1105,468l-188 -402c-106,282 -15,172 -211,401l-247 236c-11,-22 -45,50 -65,76z"/>
   <path class="fil2" d="M11081 4216l281 -102 -57 -406 -632 -167 -178 -571c-515,-78 -388,-134 -743,117 643,298 725,-123 780,731l594 217 -45 181z"/>
   <path class="fil6" d="M7792 9676l85 -6c362,-411 319,-495 349,-1024 -285,169 -189,154 -517,-96 -143,363 -205,244 -446,595 782,264 200,364 485,180 178,241 123,47 44,351z"/>
   <path class="fil2" d="M6028 6878l-136 218 -224 -72c615,410 675,508 1416,265 -309,-349 -62,-139 -475,-313l-81 -429 -72 -35c-160,322 -84,243 -428,366z"/>
   <path class="fil1" d="M8106 13254l238 449c307,-142 305,-176 646,-143l-7 -174 -440 -1c-241,-344 -230,-268 -328,-657l95 -515 111 -114c-71,-181 254,-300 -223,-132 -370,424 -111,743 -92,1287z"/>
   <path class="fil16" d="M7734 16570c475,72 435,87 544,560 320,149 212,125 410,-104 155,330 36,197 384,352l-164 -422c-323,-240 -153,-56 -259,-303l-150 -423c-597,530 -407,-35 -765,340z"/>
   <path class="fil2" d="M10451 8821l463 774 105 -353c125,61 -35,48 230,-197l566 -294c-346,-316 -52,-147 -463,-194l-73 238c-499,71 -290,95 -704,-196l-124 222z"/>
   <path class="fil2" d="M10117 5165l131 95c413,-272 654,-458 1065,-679l-391 -100 159 -265 -719 -19c-44,9 -111,-21 -134,-18l404 105 -515 881z"/>
   <path class="fil2" d="M3339 6873c199,141 230,186 502,301l130 -445 -74 -24 -204 -452 -333 -127 -43 -313c-207,462 -72,593 22,1060z"/>
   <path class="fil14" d="M8143 11488l55 479c477,-168 152,-49 223,132l400 14 154 -263c-167,-143 -127,109 -181,-600 -388,78 -45,92 -426,-32l-225 270z"/>
   <path class="fil13" d="M11015 20030l42 111 -162 548c27,235 -41,176 163,214l97 -140 338 -324 246 -194 26 -334 -267 108 -163 -233c-33,19 -74,39 -99,56 -23,16 -65,44 -88,59 -23,17 -109,100 -133,129z"/>
   <path class="fil18" d="M9605 15949c103,192 -126,95 240,170l466 -303c99,-326 25,-165 181,-337 64,-70 54,-30 177,-158 9,-9 136,-168 137,-170l-6 -219 -441 177c-14,25 -28,60 -44,85 -14,23 -30,51 -45,73 -14,19 -35,42 -49,59 -125,145 -319,184 -616,623z"/>
   <path class="fil11" d="M2567 12705l15 39 494 77c-85,1236 401,1063 836,1051l-531 -418 -120 -1050c-51,317 -11,98 -444,199 -521,121 178,-239 -250,102z"/>
   <path class="fil0" d="M3800 3875l-154 892c171,-57 -377,-144 451,131 236,78 478,-7 696,-66 -336,-141 -328,6 -520,-303 -221,-356 -227,-529 -535,-745l62 91z"/>
   <path class="fil1" d="M11897 12073c283,372 41,15 301,295 4,5 127,202 186,283l266 118c102,-488 -94,-826 -249,-1320l-138 -27 14 405 -380 246z"/>
   <path class="fil5" d="M10863 18914l6 -496 -570 339c20,297 -79,827 187,834 367,9 292,-501 377,-677z"/>
   <path class="fil1" d="M11299 8047l-5 352c428,49 177,-30 428,45 386,116 46,145 577,64l-146 -232 -323 -339 -68 316 -154 -573 -195 339 -88 -482 -237 267 211 243z"/>
   <path class="fil6" d="M11769 4464l641 144c190,-622 1395,85 1604,-1117l-231 0 -43 276c-693,607 -1378,308 -1971,697z"/>
   <path class="fil6" d="M10117 5165l-326 35 133 -673 -295 -139c-304,-91 -161,41 -291,-124 -64,210 -14,40 -103,193 -10,18 -32,53 -43,71l-88 156c231,223 346,213 454,324 321,328 -238,32 287,438l272 -281z"/>
   <path class="fil9" d="M11957 10643c70,493 -42,95 219,192l60 -348 484 -13c-28,-313 2,-462 -227,-598l-629 127 160 233 -67 407z"/>
   <path class="fil6" d="M5516 2988c502,-141 -19,17 404,-335 434,-362 159,-34 666,-226l-606 -41c34,200 -179,-169 -334,-361 -308,-381 -32,-289 -502,-549 4,332 124,149 -128,337l385 364c255,282 -22,282 336,405 44,746 58,84 -221,406z"/>
   <path class="fil4" d="M6028 6878c344,-123 268,-44 428,-366l-355 2c-170,-341 -352,-685 -698,-834l13 641c415,54 -203,-117 188,-4l424 561z"/>
   <path class="fil6" d="M13944 6120l-132 546c494,-84 583,26 791,-415l130 -91 65 -386c-406,105 -202,208 -854,346z"/>
   <path class="fil2" d="M4525 10246c-31,213 -71,290 -98,470 -98,647 -60,365 94,523 308,-584 703,-566 259,-1356l-255 363z"/>
   <path class="fil1" d="M10914 9595c530,22 534,-148 772,-49l41 -305 209 -454 -121 -36 -566 294c-265,245 -105,258 -230,197l-105 353z"/>
   <path class="fil13" d="M7791 7552c14,9 41,0 47,19 20,65 173,-177 461,318 175,-99 148,44 200,-139 258,35 240,91 106,-134l77 -380 -459 -190c-296,222 -273,148 -432,506z"/>
   <path class="fil7" d="M6356 15128l-3 143 641 333 155 63 55 -484 -155 -214 -254 352c-32,-454 50,-410 -342,-611 -221,94 -137,75 -97,418z"/>
   <path class="fil10" d="M5111 11164l74 339 559 -72 308 -235c-144,-294 -361,-288 -640,-444l-301 412z"/>
   <path class="fil9" d="M12187 17341l281 111 257 -352c18,-46 118,-251 114,-287 -34,-363 160,-114 -239,-339l-285 38 -128 829z"/>
   <path class="fil11" d="M3815 13503c679,532 453,-321 707,872 485,57 379,90 835,-82l-24 -52 -608 -26c-249,-780 -141,-547 63,-1091 -248,195 -531,421 -973,379z"/>
   <path class="fil12" d="M6545 15906l199 245 -201 340 95 279 18 -486c324,114 168,25 144,-174 -3,-31 -10,-85 -10,-128l558 -51 65 -385c-318,44 62,-1 -373,155l-46 -97 -641 -333c195,484 206,158 192,635z"/>
   <path class="fil1" d="M3775 27824c37,101 69,208 140,297 169,216 39,99 232,149l352 -46c-225,-225 -300,-270 -281,-601 12,-204 99,-401 219,-533l-540 -34c247,611 155,520 -122,768z"/>
   <path class="fil2" d="M3931 19850c152,290 235,492 457,616l424 -113c-166,-346 -333,-578 -706,-820l-175 317z"/>
   <path class="fil2" d="M10154 13590l111 -539c-23,3 -294,40 -312,39 -242,-1 -127,0 -312,-61l-94 -626 -64 604c11,252 54,311 83,630l588 -47z"/>
   <path class="fil13" d="M2671 17434l220 -319 203 302 262 -27 -189 -681 -654 181c-221,-347 -48,-200 -234,-156l-27 260 428 103 -9 337z"/>
   <path class="fil2" d="M10542 7216c315,337 133,296 243,795l148 33 90 211c27,-28 69,-102 90,-77 20,23 66,-52 92,-70 25,-17 64,-38 94,-61l-211 -243 237 -267 -86 -77c-368,-77 -388,-232 -685,-514l-12 270z"/>
   <path class="fil14" d="M15515 18978c421,-177 263,-212 486,-456 -190,-318 -480,-629 -484,-942 169,219 65,-3 -7,298l-85 311c-7,-17 -18,80 -25,120l-475 -148c610,-13 214,-192 487,606 25,73 59,165 66,143 4,-16 26,44 37,68z"/>
   <path class="fil9" d="M10720 10785l284 421c534,-217 511,-205 230,-526l362 -116c-209,-327 16,-91 -300,-364 -200,201 -58,33 -184,240 -16,25 -87,220 -86,224l-306 121z"/>
   <path class="fil4" d="M11765 19911l-26 334 -246 194c284,-95 331,-159 504,-343 256,-273 221,-183 490,-449l-133 -137 -100 -268 -190 -3 -299 672z"/>
   <path class="fil9" d="M11676 12379c259,420 287,313 141,759l298 133c-100,-740 175,-1 8,-640l261 20c-59,-81 -182,-278 -186,-283 -260,-280 -18,77 -301,-295l-127 -32 -94 338z"/>
   <path class="fil2" d="M6387 10026l805 -133c-88,-470 167,-195 -209,-462 -165,-117 -326,10 -349,23 -253,141 -242,383 -247,572z"/>
   <path class="fil15" d="M5744 11431l-667 424c-14,-24 -48,48 -70,73 423,10 90,74 637,-99 -52,569 -145,333 74,589l334 -1222 -308 235z"/>
   <path class="fil11" d="M14767 20210c-201,280 -91,153 -471,240 -43,236 -118,120 60,241l559 -231 62 366c39,439 76,543 424,664l-389 -909 244 -540 -148 178 -341 -9z"/>
   <path class="fil15" d="M15266 16025c48,434 286,812 692,955 305,-328 73,-59 264,-459 84,-178 155,-288 251,-485 -252,213 -222,222 -390,370l-351 172 -466 -553z"/>
   <path class="fil11" d="M13155 15195c-491,223 -231,-41 -245,321 485,-226 90,-141 412,-69 -64,326 -152,743 57,973 12,-766 158,-939 215,-1513 -400,34 -88,-92 -439,288z"/>
   <path class="fil19" d="M8087 15671l127 325 -150 275 668 -357 98 -279c-222,-307 15,-180 -301,-424 -87,366 -17,417 -442,460z"/>
   <path class="fil19" d="M12762 20252c51,451 -76,195 160,340l421 -267 -116 -729c-388,240 -261,299 -465,656z"/>
   <path class="fil10" d="M10320 25904c627,155 95,151 502,439 343,-283 368,-456 330,-892l-122 72 -710 381z"/>
   <path class="fil13" d="M7295 18043l54 215 378 4c-45,-570 -48,-202 74,-345l-10 -198 -250 -84 35 33 -506 27 -84 268 309 80z"/>
   <path class="fil2" d="M13685 20065c78,185 47,198 280,303l254 62c17,5 53,10 77,20 380,-87 270,40 471,-240l-145 -323 -528 346c59,-243 49,-225 52,-599l-53 446 -408 -15z"/>
   <path class="fil14" d="M14858 23616c481,67 892,92 1270,-119l-528 -334 -742 453z"/>
   <path class="fil17" d="M13468 21821l314 -527 57 420c152,-234 37,-163 348,-197l44 -158c-75,-321 -229,-364 -544,-492l-219 954z"/>
   <path class="fil4" d="M6752 17570l318 125 506 -27c-249,-259 -166,-193 -552,-380l192 -208c-428,20 -120,69 -221,-184 -372,167 -238,231 -243,674z"/>
   <path class="fil10" d="M8064 16271l150 -275 -127 -325 -131 -402 -87 -14 -227 546c230,349 95,366 422,470z"/>
   <path class="fil20" d="M9465 25262c-232,-87 -101,-133 -374,55 153,482 -131,477 279,806 287,-255 256,-434 95,-861z"/>
   <path class="fil11" d="M10568 20975c18,22 46,30 52,67 8,46 73,94 85,111l102 133c6,8 26,33 39,49l254 222c266,-338 101,35 210,-446 -183,-176 -139,98 -155,-348l-97 140c-204,-38 -136,21 -163,-214l-327 286z"/>
   <path class="fil14" d="M12176 10835c308,296 116,181 581,108l206 -511 -243 42 -484 13 -60 348z"/>
   <path class="fil15" d="M3339 6873l-8 387c637,-25 739,7 934,487 160,-417 60,-220 207,-332 -470,-367 -275,-80 -501,-686l-130 445c-272,-115 -303,-160 -502,-301z"/>
   <path class="fil2" d="M14916 6316c-6,123 -27,234 -30,326 -14,452 -52,83 74,277l450 -249 -42 -413 -194 -165 -258 224z"/>
   <path class="fil4" d="M5541 18956l-67 0 -112 316c334,194 255,-237 564,376 24,-21 70,-74 73,-61l40 -305c157,-342 298,-214 72,-499l-205 326 -365 -153z"/>
   <path class="fil11" d="M9107 22031l274 300 220 -131 125 -28 -47 -337c-78,-224 72,-79 -248,-218l-21 0c-303,210 -160,40 -303,414z"/>
   <path class="fil6" d="M13751 11917l-367 -22 -95 450 446 383c129,-427 119,-320 -72,-615l88 -196z"/>
   <path class="fil9" d="M9286 23019l89 -161 113 241 133 0 -20 -899 -220 131 168 143c-527,88 -196,-268 -462,348l199 197z"/>
   <path class="fil14" d="M6276 10855l-37 306 741 -60c-1,-23 3,-63 1,-91 0,-8 -47,-324 -53,-364l-468 138 -184 71z"/>
   <path class="fil2" d="M12891 11532c-292,37 -141,-110 -283,169l161 433 434 -272c-355,-594 252,217 -12,-434l-300 104z"/>
   <path class="fil15" d="M16793 15348l34 -157c59,-462 66,-319 -465,-419 187,499 150,471 175,1069l256 -493z"/>
   <path class="fil1" d="M12891 11532l300 -104 -35 -80c-40,-136 -113,149 -30,-416l-369 11 -283 253 417 336z"/>
   <polygon class="fil5" points="11057,20141 11015,20030 11002,19504 10696,20209 10323,20127 10563,20639 "/>
   <path class="fil2" d="M5007 11928c22,-25 56,-97 70,-73l667 -424 -559 72 -74 -339c-21,26 -48,58 -61,78l-139 240c-85,170 -16,95 -144,310l240 136z"/>
   <path class="fil16" d="M9826 27490c489,-293 282,-320 874,-342 -184,-196 -224,-237 -414,-420 -296,280 -200,392 -470,474l10 288z"/>
   <path class="fil13" d="M8344 13703l213 324 265 138 168 -605c-341,-33 -339,1 -646,143z"/>
   <path class="fil1" d="M6276 10855l57 -278c-394,-139 -423,-249 -695,21 107,359 281,265 638,257z"/>
   <path class="fil14" d="M6250 18379l2 31c223,394 78,378 481,479l62 -665c-154,66 -309,123 -545,155z"/>
   <path class="fil2" d="M7148 6829c237,60 191,-94 380,-442l-147 -399 -470 456 425 98 -188 287z"/>
   <path class="fil14" d="M10272 7522c213,308 171,347 513,489 -110,-499 72,-458 -243,-795 -354,203 160,-67 -270,306z"/>
   <path class="fil11" d="M15459 19162c-204,40 -346,106 -560,23l-379 -282c-18,-57 -63,-53 -115,-70l216 512c337,103 641,170 838,-183z"/>
   <path class="fil9" d="M5290 15783l509 -158c17,-2 58,-5 86,-11l-184 -286 -265 -43c-245,-59 -204,-108 -137,133l-9 365z"/>
   <path class="fil9" d="M11608 7680l154 573 68 -316 323 339 -107 -463c70,-450 40,-142 26,-452l-134 184c-12,21 -33,64 -43,82 -8,15 -19,88 -25,74 -5,-13 -8,45 -11,63l-251 -84z"/>
   <path class="fil9" d="M9761 8144c4,354 106,176 -45,309l378 -40 246 -157 -333 -296 -249 -6 3 190z"/>
   <path class="fil2" d="M4611 4047c22,-188 51,-130 -156,-95l-99 -383 -177 146 -141 -102c32,283 -1,97 74,309 55,154 56,5 111,272 218,-44 45,58 388,-147z"/>
   <path class="fil15" d="M10272 7522c430,-373 -84,-103 270,-306l12 -270c-241,-72 -364,46 -525,169l243 407z"/>
   <polygon class="fil2" points="9761,8144 9758,7954 10007,7960 10139,7728 9535,7350 "/>
   <path class="fil12" d="M13022 23417c193,-7 23,-145 175,119l344 21 -77 -630c-363,288 -191,108 -442,490z"/>
   <path class="fil7" d="M6807 20987c414,299 277,47 401,358 214,-407 182,-172 54,-554l-493 -4 38 200z"/>
   <path class="fil18" d="M8087 15671c425,-43 355,-94 442,-460l-573 58 131 402z"/>
   <polygon class="fil14" points="10555,2589 11160,2571 11137,2271 10655,2223 "/>
   <polygon class="fil2" points="6543,16491 6744,16151 6545,15906 6348,15869 6252,16230 "/>
   <polygon class="fil7" points="9845,16119 9761,16486 10232,16300 10311,15816 "/>
   <path class="fil15" d="M8926 4347l412 -83 -22 -324c-295,-189 -28,-152 -382,-46l-8 453z"/>
   <path class="fil1" d="M5410 19629c-3,282 -194,330 -553,750l248 217c177,-244 332,-591 305,-967z"/>
   <path class="fil2" d="M6988 4077l-55 115c236,202 -11,57 348,237 109,54 217,76 331,117l-494 -305c402,-251 186,-129 570,-250l10 -279c-457,348 -215,212 -710,365z"/>
   <path class="fil15" d="M10057 27938l-256 193 -164 -76c-161,174 -114,197 24,560 323,-336 278,-213 396,-677z"/>
   <path class="fil4" d="M7631 21681l46 282 393 -365c-24,-125 -118,-490 -248,-301l-191 384z"/>
   <polygon class="fil14" points="4092,3283 4038,3613 4179,3715 4356,3569 4471,3085 "/>
   <path class="fil14" d="M5977 8517l274 -105c5,-305 89,-358 223,-487l-385 -39c-5,32 -42,67 -48,85 -82,217 24,275 24,274 4,-19 44,29 58,42l-146 230z"/>
   <path class="fil13" d="M4693 27790c670,-29 156,-79 830,-216 -403,-164 -607,-208 -830,216z"/>
   <polygon class="fil0" points="3839,19340 4167,19248 4403,19438 4208,18915 3913,19002 "/>
   <path class="fil1" d="M8605 7616c134,225 152,169 -106,134l91 414c279,-285 223,-291 395,-674l-380 126z"/>
   <path class="fil13" d="M10385 10947l344 -112 -149 -487c-263,67 -123,-102 -172,220 -1,9 -15,324 -23,379z"/>
   <path class="fil19" d="M9151 16136l-19 16 -329 67c72,466 49,307 385,382l-37 -465z"/>
   <path class="fil14" d="M6467 19602l222 106c45,-303 38,-575 -279,-570l57 464z"/>
   <path class="fil15" d="M15515 18978l-56 184 630 -344 -88 -296c-223,244 -65,279 -486,456z"/>
   <path class="fil9" d="M7295 5773l541 208 -585 -686c103,321 83,169 44,478z"/>
   <path class="fil16" d="M11716 15079c200,-387 56,-217 16,-345 -483,32 -189,-25 -318,178 182,313 22,124 302,167z"/>
   <path class="fil19" d="M6752 14293l13 393c374,-160 255,-18 285,-469l-298 76z"/>
   <path class="fil2" d="M9507 11341l327 -88 -4 -400c-293,214 -304,103 -323,488z"/>
   <path class="fil11" d="M13594 14907l335 8 13 -430c-400,269 -221,-10 -348,422z"/>
   <path class="fil15" d="M14292 17473l296 1 355 -794c-222,235 -172,293 -317,478 -178,225 -120,57 -334,315z"/>
   <path class="fil2" d="M11216 6839l-269 -58c62,288 -19,240 282,429l-13 -371z"/>
   <path class="fil14" d="M8802 5328c151,-369 20,-148 -60,-234 -264,61 -167,-167 -212,187 208,214 5,86 272,47z"/>
   <path class="fil0" d="M9924 4527l-23 -329c-408,36 -163,-18 -272,190l295 139z"/>
   <path class="fil9" d="M12597 25467c367,-52 282,7 469,-326 -284,88 -254,41 -469,326z"/>
   <polygon class="fil4" points="8645,22521 8208,22707 8451,22884 "/>
   <path class="fil11" d="M7554 22516c215,-303 95,-85 -181,-162 -218,-127 -89,-127 -91,195l272 -33z"/>
   <path class="fil4" d="M7407 22264l282 -53 -90 -187c-191,103 -68,-164 -192,240z"/>
   <path class="fil13" d="M17609 22539c-199,1 -171,276 34,202 111,-40 78,-202 -34,-202z"/>
   <path class="fil0" d="M8827 4437l-128 31c-208,253 -187,28 -43,323l171 -354z"/>
   <polygon class="fil21" points="8810,21955 8442,21674 8540,21962 "/>
   <path class="fil21" d="M9901 4198l148 -212 -296 -26c158,294 -64,80 148,238z"/>
   <path class="fil1" d="M6623 7654c71,-242 -154,-87 -155,-61 -7,263 82,307 155,61z"/>
   <polygon class="fil21" points="9223,23137 9488,23099 9375,22858 9286,23019 "/>
   <path class="fil0" d="M11378 22339c173,-307 160,-7 7,-305 -142,206 -182,46 -7,305z"/>
   <path class="fil0" d="M16362 14772l-249 -315c71,346 -19,231 249,315z"/>
   <polygon class="fil11" points="13519,13713 13770,13619 13336,13592 "/>
   <path class="fil6" d="M5178 6141l-304 -12c428,246 172,186 304,12z"/>
   <path class="fil3" d="M10402 22710c287,-67 147,85 166,-209l-166 209z"/>
  </g>
 </g>
</svg>
